
<svg width="92" height="91" viewBox="0 0 92 91" fill="none" xmlns="http://www.w3.org/2000/svg">
<g filter="url(#filter0_bii_537_504)">
<rect x="0.478516" width="91" height="91" rx="20.4571" fill="#E3FFCC"/>
<rect x="0.978516" y="0.5" width="90" height="90" rx="19.9571" stroke="black" stroke-opacity="0.21"/>
<path d="M50.5782 76.6417H28.0588C26.6122 76.6401 25.2254 76.0647 24.2025 75.0418C23.1796 74.0189 22.6042 72.632 22.6025 71.1854V19.8147C22.6042 18.3681 23.1796 16.9812 24.2025 15.9583C25.2254 14.9354 26.6122 14.36 28.0588 14.3584H50.5782C51.4716 14.3581 52.3514 14.5772 53.1403 14.9966C53.9292 15.416 54.6029 16.0227 55.1024 16.7635C55.1652 16.8565 55.2091 16.961 55.2315 17.0709C55.254 17.1809 55.2545 17.2942 55.2332 17.4044C55.2119 17.5146 55.169 17.6195 55.1071 17.7131C55.0452 17.8067 54.9655 17.8873 54.8725 17.9501C54.7795 18.0129 54.6751 18.0568 54.5651 18.0792C54.4551 18.1017 54.3418 18.1023 54.2316 18.0809C54.1215 18.0596 54.0166 18.0168 53.9229 17.9549C53.8293 17.893 53.7488 17.8133 53.6859 17.7203C53.3429 17.2114 52.8801 16.7945 52.3382 16.5063C51.7963 16.2182 51.192 16.0675 50.5782 16.0676H28.0588C27.0654 16.0687 26.1129 16.4639 25.4105 17.1663C24.708 17.8688 24.3129 18.8212 24.3117 19.8147V71.1854C24.3129 72.1789 24.708 73.1313 25.4105 73.8338C26.1129 74.5362 27.0654 74.9314 28.0588 74.9325H50.5782C51.4404 74.9308 52.2757 74.6326 52.9441 74.088C53.6125 73.5434 54.0733 72.7856 54.2492 71.9415C54.2713 71.8312 54.315 71.7263 54.3777 71.6329C54.4404 71.5394 54.521 71.4593 54.6148 71.3971C54.7085 71.3349 54.8137 71.2918 54.9242 71.2704C55.0346 71.2489 55.1482 71.2495 55.2585 71.272C55.3687 71.2946 55.4735 71.3387 55.5666 71.4018C55.6598 71.465 55.7395 71.5459 55.8013 71.6399C55.8631 71.734 55.9058 71.8393 55.9268 71.9498C55.9478 72.0604 55.9467 72.174 55.9237 72.2842C55.6678 73.5135 54.997 74.6174 54.0237 75.4108C53.0504 76.2042 51.8339 76.6388 50.5782 76.6417Z" fill="#1AA47B"/>
<path d="M44.3716 20.3472H34.4714C33.9067 20.3489 33.3546 20.1806 32.8868 19.8643C32.419 19.548 32.0572 19.0982 31.8485 18.5736L30.627 15.5314C30.5749 15.4018 30.5554 15.2613 30.5703 15.1223C30.5851 14.9834 30.6338 14.8502 30.712 14.7344C30.7903 14.6186 30.8957 14.5238 31.0191 14.4583C31.1426 14.3927 31.2802 14.3584 31.4199 14.3584H47.4234C47.5632 14.3584 47.7008 14.3927 47.8242 14.4583C47.9476 14.5238 48.0531 14.6186 48.1313 14.7344C48.2096 14.8502 48.2583 14.9834 48.2731 15.1223C48.2879 15.2613 48.2684 15.4018 48.2164 15.5314L46.9948 18.5736C46.7861 19.0983 46.4242 19.5481 45.9564 19.8644C45.4885 20.1807 44.9363 20.349 44.3716 20.3472ZM32.6841 16.0676L33.4345 17.9368C33.5171 18.1443 33.6601 18.3221 33.8451 18.4471C34.03 18.5722 34.2484 18.6387 34.4716 18.638H44.3718C44.5951 18.6387 44.8134 18.5722 44.9984 18.4471C45.1834 18.3221 45.3264 18.1443 45.4089 17.9368L46.1595 16.0676H32.6841Z" fill="#1AA47B"/>
<path d="M47.25 73.2175H31.3888C31.1621 73.2175 30.9448 73.1275 30.7845 72.9672C30.6242 72.8069 30.5342 72.5896 30.5342 72.3629C30.5342 72.1362 30.6242 71.9189 30.7845 71.7586C30.9448 71.5983 31.1621 71.5083 31.3888 71.5083H47.25C47.4767 71.5083 47.6941 71.5983 47.8543 71.7586C48.0146 71.9189 48.1046 72.1362 48.1046 72.3629C48.1046 72.5896 48.0146 72.8069 47.8543 72.9672C47.6941 73.1275 47.4767 73.2175 47.25 73.2175Z" fill="#1AA47B"/>
<g filter="url(#filter1_b_537_504)">
<mask id="path-6-outside-1_537_504" maskUnits="userSpaceOnUse" x="36.0469" y="46.0344" width="39" height="19" fill="black">
<rect fill="white" x="36.0469" y="46.0344" width="39" height="19"/>
<path fill-rule="evenodd" clip-rule="evenodd" d="M37.0469 48.5799C37.0469 47.7264 37.7388 47.0344 38.5924 47.0344H73.2924C74.1459 47.0344 74.8379 47.7264 74.8379 48.5799V49.726C74.8397 49.7569 74.8407 49.788 74.8407 49.8193V62.4697C74.8407 63.3233 74.1487 64.0153 73.2951 64.0153H69.4506C68.597 64.0153 67.9051 63.3233 67.9051 62.4697V53.4349C67.9051 53.2222 67.7326 53.0497 67.5199 53.0497H44.3687C44.156 53.0497 43.9835 53.2222 43.9835 53.4349V62.4697C43.9835 63.3233 43.2916 64.0153 42.438 64.0153H38.5934C37.7399 64.0153 37.0479 63.3233 37.0479 62.4697V51.5615C37.0472 51.5425 37.0469 51.5234 37.0469 51.5042V48.5799Z"/>
</mask>
<path fill-rule="evenodd" clip-rule="evenodd" d="M37.0469 48.5799C37.0469 47.7264 37.7388 47.0344 38.5924 47.0344H73.2924C74.1459 47.0344 74.8379 47.7264 74.8379 48.5799V49.726C74.8397 49.7569 74.8407 49.788 74.8407 49.8193V62.4697C74.8407 63.3233 74.1487 64.0153 73.2951 64.0153H69.4506C68.597 64.0153 67.9051 63.3233 67.9051 62.4697V53.4349C67.9051 53.2222 67.7326 53.0497 67.5199 53.0497H44.3687C44.156 53.0497 43.9835 53.2222 43.9835 53.4349V62.4697C43.9835 63.3233 43.2916 64.0153 42.438 64.0153H38.5934C37.7399 64.0153 37.0479 63.3233 37.0479 62.4697V51.5615C37.0472 51.5425 37.0469 51.5234 37.0469 51.5042V48.5799Z" fill="url(#paint0_linear_537_504)"/>
<path d="M74.8379 49.726H74.7897L74.7898 49.7289L74.8379 49.726ZM37.0479 51.5615H37.0961L37.096 51.5597L37.0479 51.5615ZM38.5924 46.9863C37.7122 46.9863 36.9987 47.6998 36.9987 48.5799H37.095C37.095 47.753 37.7654 47.0826 38.5924 47.0826V46.9863ZM73.2924 46.9863H38.5924V47.0826H73.2924V46.9863ZM74.886 48.5799C74.886 47.6998 74.1725 46.9863 73.2924 46.9863V47.0826C74.1194 47.0826 74.7898 47.753 74.7898 48.5799H74.886ZM74.886 49.726V48.5799H74.7898V49.726H74.886ZM74.7898 49.7289C74.7916 49.7588 74.7925 49.7889 74.7925 49.8193H74.8888C74.8888 49.787 74.8878 49.755 74.886 49.7232L74.7898 49.7289ZM74.7925 49.8193V62.4697H74.8888V49.8193H74.7925ZM74.7925 62.4697C74.7925 63.2967 74.1221 63.9671 73.2951 63.9671V64.0634C74.1753 64.0634 74.8888 63.3499 74.8888 62.4697H74.7925ZM73.2951 63.9671H69.4506V64.0634H73.2951V63.9671ZM69.4506 63.9671C68.6236 63.9671 67.9532 63.2967 67.9532 62.4697H67.8569C67.8569 63.3499 68.5704 64.0634 69.4506 64.0634V63.9671ZM67.9532 62.4697V53.4349H67.8569V62.4697H67.9532ZM44.3687 53.0979H67.5199V53.0016H44.3687V53.0979ZM44.0317 62.4697V53.4349H43.9354V62.4697H44.0317ZM42.438 64.0634C43.3182 64.0634 44.0317 63.3499 44.0317 62.4697H43.9354C43.9354 63.2967 43.265 63.9671 42.438 63.9671V64.0634ZM38.5934 64.0634H42.438V63.9671H38.5934V64.0634ZM36.9998 62.4697C36.9998 63.3499 37.7133 64.0634 38.5934 64.0634V63.9671C37.7665 63.9671 37.0961 63.2967 37.0961 62.4697H36.9998ZM36.9998 51.5615V62.4697H37.0961V51.5615H36.9998ZM36.9987 51.5042C36.9987 51.524 36.9991 51.5437 36.9998 51.5632L37.096 51.5597C37.0954 51.5413 37.095 51.5228 37.095 51.5042H36.9987ZM36.9987 48.5799V51.5042H37.095V48.5799H36.9987ZM44.3687 53.0016C44.1294 53.0016 43.9354 53.1956 43.9354 53.4349H44.0317C44.0317 53.2488 44.1826 53.0979 44.3687 53.0979V53.0016ZM67.9532 53.4349C67.9532 53.1956 67.7592 53.0016 67.5199 53.0016V53.0979C67.706 53.0979 67.8569 53.2488 67.8569 53.4349H67.9532Z" fill="url(#paint1_linear_537_504)" fill-opacity="0.5" mask="url(#path-6-outside-1_537_504)"/>
</g>
<path fill-rule="evenodd" clip-rule="evenodd" d="M51.6192 36.9954C51.5752 36.9693 51.5388 36.9318 51.5137 36.8868C51.4886 36.8417 51.4757 36.7907 51.4763 36.7389C51.4769 36.6871 51.491 36.6364 51.5171 36.5919L52.4102 34.973H38.5924C37.7388 34.973 37.0469 35.665 37.0469 36.5185V44.5034C37.0469 45.357 37.7388 46.049 38.5924 46.049H73.2941C74.1477 46.049 74.8397 45.357 74.8397 44.5035V36.5185C74.8397 35.665 74.1477 34.973 73.2941 34.973H59.453L55.4325 42.1414C55.397 42.1968 55.3443 42.2385 55.2827 42.2597C55.2212 42.2809 55.1544 42.2804 55.0932 42.2583C55.0319 42.2362 54.9797 42.1938 54.9451 42.1379C54.9104 42.0819 54.8952 42.0157 54.902 41.95L55.5341 37.0352L51.7641 37.0352C51.7132 37.0352 51.6632 37.0215 51.6192 36.9954Z" fill="#0B353B"/>
<path d="M49.6138 37.2993C49.6501 37.3645 49.7028 37.4187 49.7664 37.4565C49.83 37.4942 49.9023 37.5141 49.9759 37.5141L55.4287 37.5141L54.5145 44.6225C54.5047 44.7176 54.5267 44.8134 54.5768 44.8943C54.627 44.9752 54.7024 45.0366 54.791 45.0685C54.8796 45.1005 54.9762 45.1012 55.0652 45.0705C55.1542 45.0398 55.2305 44.9795 55.2818 44.8993L61.913 33.0763C61.9517 33.0121 61.973 32.9385 61.9745 32.8632C61.9761 32.7879 61.9578 32.7135 61.9217 32.6477C61.8856 32.5819 61.8329 32.5272 61.769 32.489C61.7052 32.4509 61.6325 32.4308 61.5584 32.4308L56.1871 32.4308L56.9116 25.3117C56.9187 25.2169 56.8945 25.1223 56.8427 25.0432C56.791 24.964 56.7147 24.9047 56.626 24.8748C56.5374 24.8448 56.4414 24.8459 56.3534 24.8778C56.2654 24.9098 56.1904 24.9707 56.1404 25.051L49.6188 36.8728C49.581 36.9371 49.5606 37.0105 49.5597 37.0854C49.5588 37.1603 49.5775 37.2341 49.6138 37.2993Z" fill="url(#paint2_linear_537_504)"/>
<path d="M49.6138 37.2993C49.6501 37.3645 49.7028 37.4187 49.7664 37.4565C49.83 37.4942 49.9023 37.5141 49.9759 37.5141L55.4287 37.5141L54.5145 44.6225C54.5047 44.7176 54.5267 44.8134 54.5768 44.8943C54.627 44.9752 54.7024 45.0366 54.791 45.0685C54.8796 45.1005 54.9762 45.1012 55.0652 45.0705C55.1542 45.0398 55.2305 44.9795 55.2818 44.8993L61.913 33.0763C61.9517 33.0121 61.973 32.9385 61.9745 32.8632C61.9761 32.7879 61.9578 32.7135 61.9217 32.6477C61.8856 32.5819 61.8329 32.5272 61.769 32.489C61.7052 32.4509 61.6325 32.4308 61.5584 32.4308L56.1871 32.4308L56.9116 25.3117C56.9187 25.2169 56.8945 25.1223 56.8427 25.0432C56.791 24.964 56.7147 24.9047 56.626 24.8748C56.5374 24.8448 56.4414 24.8459 56.3534 24.8778C56.2654 24.9098 56.1904 24.9707 56.1404 25.051L49.6188 36.8728C49.581 36.9371 49.5606 37.0105 49.5597 37.0854C49.5588 37.1603 49.5775 37.2341 49.6138 37.2993Z" fill="#3BFE7B"/>
<path d="M49.6138 37.2993C49.6501 37.3645 49.7028 37.4187 49.7664 37.4565C49.83 37.4942 49.9023 37.5141 49.9759 37.5141L55.4287 37.5141L54.5145 44.6225C54.5047 44.7176 54.5267 44.8134 54.5768 44.8943C54.627 44.9752 54.7024 45.0366 54.791 45.0685C54.8796 45.1005 54.9762 45.1012 55.0652 45.0705C55.1542 45.0398 55.2305 44.9795 55.2818 44.8993L61.913 33.0763C61.9517 33.0121 61.973 32.9385 61.9745 32.8632C61.9761 32.7879 61.9578 32.7135 61.9217 32.6477C61.8856 32.5819 61.8329 32.5272 61.769 32.489C61.7052 32.4509 61.6325 32.4308 61.5584 32.4308L56.1871 32.4308L56.9116 25.3117C56.9187 25.2169 56.8945 25.1223 56.8427 25.0432C56.791 24.964 56.7147 24.9047 56.626 24.8748C56.5374 24.8448 56.4414 24.8459 56.3534 24.8778C56.2654 24.9098 56.1904 24.9707 56.1404 25.051L49.6188 36.8728C49.581 36.9371 49.5606 37.0105 49.5597 37.0854C49.5588 37.1603 49.5775 37.2341 49.6138 37.2993Z" stroke="#FFF3E4" strokeWidth="0.365667"/>
</g>
<defs>
<filter id="filter0_bii_537_504" x="-38.1627" y="-38.6412" width="168.282" height="168.282" filterUnits="userSpaceOnUse" color-interpolation-filters="sRGB">
<feFlood flood-opacity="0" result="BackgroundImageFix"/>
<feGaussianBlur in="BackgroundImageFix" stdDeviation="19.3206"/>
<feComposite in2="SourceAlpha" operator="in" result="effect1_backgroundBlur_537_504"/>
<feBlend mode="normal" in="SourceGraphic" in2="effect1_backgroundBlur_537_504" result="shape"/>
<feColorMatrix in="SourceAlpha" type="matrix" values="0 0 0 0 0 0 0 0 0 0 0 0 0 0 0 0 0 0 127 0" result="hardAlpha"/>
<feOffset dy="-10.2286"/>
<feGaussianBlur stdDeviation="3.58"/>
<feComposite in2="hardAlpha" operator="arithmetic" k2="-1" k3="1"/>
<feColorMatrix type="matrix" values="0 0 0 0 1 0 0 0 0 1 0 0 0 0 1 0 0 0 0.35 0"/>
<feBlend mode="normal" in2="shape" result="effect2_innerShadow_537_504"/>
<feColorMatrix in="SourceAlpha" type="matrix" values="0 0 0 0 0 0 0 0 0 0 0 0 0 0 0 0 0 0 127 0" result="hardAlpha"/>
<feMorphology radius="4.54603" operator="dilate" in="SourceAlpha" result="effect3_innerShadow_537_504"/>
<feOffset dy="7.95555"/>
<feGaussianBlur stdDeviation="5.28476"/>
<feComposite in2="hardAlpha" operator="arithmetic" k2="-1" k3="1"/>
<feColorMatrix type="matrix" values="0 0 0 0 1 0 0 0 0 1 0 0 0 0 1 0 0 0 0.59 0"/>
<feBlend mode="normal" in2="effect2_innerShadow_537_504" result="effect3_innerShadow_537_504"/>
</filter>
<filter id="filter1_b_537_504" x="36.0362" y="46.0235" width="39.8153" height="19.0027" filterUnits="userSpaceOnUse" color-interpolation-filters="sRGB">
<feFlood flood-opacity="0" result="BackgroundImageFix"/>
<feGaussianBlur in="BackgroundImageFix" stdDeviation="0.481408"/>
<feComposite in2="SourceAlpha" operator="in" result="effect1_backgroundBlur_537_504"/>
<feBlend mode="normal" in="SourceGraphic" in2="effect1_backgroundBlur_537_504" result="shape"/>
</filter>
<linearGradient id="paint0_linear_537_504" x1="55.9437" y1="53.0538" x2="55.9437" y2="68.7416" gradientUnits="userSpaceOnUse">
<stop stop-color="#0B353B"/>
<stop offset="1" stop-color="#1AA47B"/>
</linearGradient>
<linearGradient id="paint1_linear_537_504" x1="37.0469" y1="51.6655" x2="45.7696" y2="82.601" gradientUnits="userSpaceOnUse">
<stop stop-opacity="0"/>
<stop offset="1" stop-color="white"/>
</linearGradient>
<linearGradient id="paint2_linear_537_504" x1="55.4097" y1="52.2782" x2="50.4454" y2="18.6679" gradientUnits="userSpaceOnUse">
<stop stop-color="#FFE5C6"/>
<stop offset="0.455135" stop-color="#FFBA68"/>
<stop offset="0.992894" stop-color="#FFE5C6" stop-opacity="0"/>
</linearGradient>
</defs>
</svg>
