
<svg width="92" height="91" viewBox="0 0 92 91" fill="none" xmlns="http://www.w3.org/2000/svg">
<g filter="url(#filter0_bii_537_482)">
<rect x="0.353516" width="91" height="91" rx="20.4571" fill="#E3FFCC"/>
<rect x="0.853516" y="0.5" width="90" height="90" rx="19.9571" stroke="black" stroke-opacity="0.21"/>
<path d="M46.0511 63.4249C56.0436 63.4249 64.1725 55.2959 64.1725 45.3034C64.1725 35.311 56.0436 27.182 46.0511 27.182C36.0587 27.182 27.9297 35.311 27.9297 45.3034C27.9297 55.2959 36.0587 63.4249 46.0511 63.4249ZM46.0511 30.2022C54.3779 30.2022 61.1523 36.9766 61.1523 45.3034C61.1523 53.6302 54.3779 60.4046 46.0511 60.4046C37.7243 60.4046 30.9499 53.6302 30.9499 45.3034C30.9499 36.9766 37.7243 30.2022 46.0511 30.2022Z" fill="#1AA47B"/>
<path d="M73.0525 24.6175C72.7499 24.5854 72.4395 24.6741 72.2057 24.8725L64.5623 31.3399C64.1278 31.7067 64.0413 32.3418 64.3628 32.8118C66.8843 36.4994 68.2155 40.8188 68.2155 45.3033C68.2155 49.7878 66.8843 54.1072 64.3639 57.7959C64.0424 58.2658 64.1289 58.9009 64.5634 59.2678L72.2068 65.7352C72.4074 65.9048 72.6612 65.9968 72.9228 65.9968C72.966 65.9968 73.0104 65.9946 73.0547 65.989C73.3595 65.9525 73.6355 65.7895 73.8173 65.5424C78.1278 59.6358 80.4077 52.6375 80.4077 45.3033C80.4077 37.9691 78.1278 30.9708 73.8173 25.0642C73.6355 24.8159 73.3595 24.6541 73.0525 24.6175ZM72.7122 63.2591L66.7425 58.2071C69.1598 54.3399 70.4323 49.8997 70.4323 45.3033C70.4323 40.7068 69.1598 36.2666 66.7425 32.3995L72.7122 27.3475C76.3 32.66 78.1909 38.8414 78.1909 45.3033C78.1909 51.764 76.3 57.9466 72.7122 63.2591Z" fill="#1AA47B"/>
<path d="M19.0426 65.989C19.0869 65.9946 19.1313 65.9968 19.1745 65.9968C19.435 65.9968 19.6899 65.9048 19.8905 65.7352L27.5339 59.2678C27.9684 58.9009 28.0549 58.2658 27.7334 57.7959C25.2119 54.1072 23.8807 49.7878 23.8807 45.3033C23.8807 40.8188 25.2119 36.4994 27.7323 32.8118C28.0538 32.343 27.9673 31.7067 27.5328 31.3399L19.8894 24.8725C19.6555 24.6741 19.3485 24.5854 19.0426 24.6175C18.7367 24.6541 18.4607 24.8159 18.2789 25.0642C13.9684 30.9708 11.6885 37.9691 11.6885 45.3033C11.6885 52.6375 13.9684 59.6358 18.2789 65.5424C18.4607 65.7895 18.7367 65.9525 19.0426 65.989ZM19.384 27.3475L25.3537 32.3995C22.9363 36.2666 21.6639 40.7068 21.6639 45.3033C21.6639 49.8997 22.9363 54.3399 25.3537 58.2082L19.384 63.2591C15.7961 57.9466 13.9052 51.764 13.9052 45.3033C13.9052 38.8414 15.7961 32.66 19.384 27.3475Z" fill="#1AA47B"/>
<path d="M25.3643 18.2974C25.3277 18.6022 25.4208 18.9103 25.6181 19.1453L32.0855 26.7887C32.4524 27.221 33.0853 27.3085 33.5574 26.9882C37.2461 24.4677 41.5644 23.1355 46.05 23.1355C50.5356 23.1355 54.8539 24.4677 58.5426 26.9882C58.7332 27.1179 58.9516 27.1811 59.1666 27.1811C59.4836 27.1811 59.7951 27.0458 60.0145 26.7887L66.4819 19.1453C66.6803 18.9103 66.7735 18.6033 66.7358 18.2974C66.6992 17.9914 66.5363 17.7155 66.2891 17.5337C60.3836 13.2221 53.3842 10.9432 46.05 10.9432C38.7158 10.9432 31.7164 13.2221 25.8109 17.5337C25.5638 17.7144 25.4008 17.9914 25.3643 18.2974ZM46.05 13.16C52.5119 13.16 58.6944 15.0509 64.0058 18.6387L58.9538 24.6096C55.0867 22.1911 50.6465 20.9187 46.05 20.9187C41.4535 20.9187 37.0134 22.1911 33.1451 24.6096L28.0942 18.6387C33.4056 15.0509 39.5881 13.16 46.05 13.16Z" fill="#1AA47B"/>
<path d="M25.3643 72.309C25.4008 72.6138 25.5638 72.8898 25.8109 73.0715C31.7175 77.3831 38.7158 79.6631 46.05 79.6631C53.3842 79.6631 60.3825 77.3831 66.2891 73.0726C66.5374 72.8909 66.6992 72.6149 66.7358 72.3101C66.7723 72.0042 66.6792 71.6971 66.4819 71.4622L60.0145 63.8187C59.6465 63.3854 59.0137 63.2956 58.5426 63.6192C54.8539 66.1397 50.5345 67.4709 46.05 67.4709C41.5655 67.4709 37.2461 66.1397 33.5574 63.6192C33.0875 63.2967 32.4535 63.3865 32.0855 63.8187L25.6181 71.4622C25.4208 71.696 25.3277 72.003 25.3643 72.309ZM33.1451 65.9978C37.0134 68.4152 41.4535 69.6876 46.05 69.6876C50.6465 69.6876 55.0867 68.4152 58.9549 65.9978L64.0069 71.9676C58.6933 75.5554 52.5108 77.4463 46.05 77.4463C39.5892 77.4463 33.4067 75.5554 28.0942 71.9676L33.1451 65.9978Z" fill="#1AA47B"/>
<g filter="url(#filter1_b_537_482)">
<circle cx="46.0502" cy="45.3042" r="17.348" fill="url(#paint0_linear_537_482)"/>
<circle cx="46.0502" cy="45.3042" r="17.5616" stroke="url(#paint1_linear_537_482)" stroke-opacity="0.5" strokeWidth="0.427103"/>
</g>
<path fill-rule="evenodd" clip-rule="evenodd" d="M39.375 48.9436V53.8177C39.375 54.7834 40.1579 55.5663 41.1235 55.5663H43.6833C44.649 55.5663 45.4318 54.7834 45.4318 53.8177V48.7071C45.4318 48.4558 45.6356 48.252 45.8869 48.252L49.1049 48.252C52.3459 48.252 54.9733 45.6247 54.9733 42.3836C54.9733 39.1426 52.3459 36.5153 49.1049 36.5153L40.5927 36.5153C39.9202 36.5153 39.375 37.0604 39.375 37.733V47.3012C43.0976 45.7955 45.5766 43.8953 46.5349 42.964C46.6438 42.8583 46.6406 42.6859 46.5339 42.578L45.7488 41.7841C45.5931 41.6266 45.671 41.3593 45.8869 41.3101L49.4376 40.5018C49.6512 40.4531 49.8364 40.6556 49.769 40.8641L48.6988 44.1726C48.631 44.3823 48.3598 44.437 48.216 44.2699L47.5504 43.4964C47.4311 43.3577 47.2134 43.3656 47.0964 43.5062C46.1571 44.6351 43.6356 46.9206 39.375 48.9436Z" fill="#3BFE7B"/>
</g>
<defs>
<filter id="filter0_bii_537_482" x="-38.2877" y="-38.6412" width="168.282" height="168.282" filterUnits="userSpaceOnUse" color-interpolation-filters="sRGB">
<feFlood flood-opacity="0" result="BackgroundImageFix"/>
<feGaussianBlur in="BackgroundImageFix" stdDeviation="19.3206"/>
<feComposite in2="SourceAlpha" operator="in" result="effect1_backgroundBlur_537_482"/>
<feBlend mode="normal" in="SourceGraphic" in2="effect1_backgroundBlur_537_482" result="shape"/>
<feColorMatrix in="SourceAlpha" type="matrix" values="0 0 0 0 0 0 0 0 0 0 0 0 0 0 0 0 0 0 127 0" result="hardAlpha"/>
<feOffset dy="-10.2286"/>
<feGaussianBlur stdDeviation="3.58"/>
<feComposite in2="hardAlpha" operator="arithmetic" k2="-1" k3="1"/>
<feColorMatrix type="matrix" values="0 0 0 0 1 0 0 0 0 1 0 0 0 0 1 0 0 0 0.35 0"/>
<feBlend mode="normal" in2="shape" result="effect2_innerShadow_537_482"/>
<feColorMatrix in="SourceAlpha" type="matrix" values="0 0 0 0 0 0 0 0 0 0 0 0 0 0 0 0 0 0 127 0" result="hardAlpha"/>
<feMorphology radius="4.54603" operator="dilate" in="SourceAlpha" result="effect3_innerShadow_537_482"/>
<feOffset dy="7.95555"/>
<feGaussianBlur stdDeviation="5.28476"/>
<feComposite in2="hardAlpha" operator="arithmetic" k2="-1" k3="1"/>
<feColorMatrix type="matrix" values="0 0 0 0 1 0 0 0 0 1 0 0 0 0 1 0 0 0 0.59 0"/>
<feBlend mode="normal" in2="effect2_innerShadow_537_482" result="effect3_innerShadow_537_482"/>
</filter>
<filter id="filter1_b_537_482" x="19.7333" y="18.987" width="52.6339" height="52.6344" filterUnits="userSpaceOnUse" color-interpolation-filters="sRGB">
<feFlood flood-opacity="0" result="BackgroundImageFix"/>
<feGaussianBlur in="BackgroundImageFix" stdDeviation="4.27103"/>
<feComposite in2="SourceAlpha" operator="in" result="effect1_backgroundBlur_537_482"/>
<feBlend mode="normal" in="SourceGraphic" in2="effect1_backgroundBlur_537_482" result="shape"/>
</filter>
<linearGradient id="paint0_linear_537_482" x1="46.0502" y1="40.2554" x2="46.0502" y2="72.3096" gradientUnits="userSpaceOnUse">
<stop stop-color="#0B353B"/>
<stop offset="1" stop-color="#1AA47B"/>
</linearGradient>
<linearGradient id="paint1_linear_537_482" x1="28.7021" y1="37.4187" x2="59.4243" y2="86.3733" gradientUnits="userSpaceOnUse">
<stop stop-opacity="0"/>
<stop offset="1" stop-color="white"/>
</linearGradient>
</defs>
</svg>
