
<svg width="50" height="51" viewBox="0 0 50 51" fill="none" xmlns="http://www.w3.org/2000/svg">
<rect y="0.165527" width="50" height="50" rx="3.93815" fill="#E3FFCC"/>
<path fill-rule="evenodd" clip-rule="evenodd" d="M34.8068 31.2014L19.4984 33.2402C18.4525 33.3795 17.4116 33.0719 16.6263 32.3915L13.4586 29.6467L8.22573 30.3438C7.81587 30.3982 7.65005 30.92 7.95782 31.1867L17.5667 39.5124C18.0576 39.9377 18.7081 40.1299 19.3618 40.0428L40.9997 37.1612C41.4193 37.1052 41.579 36.5639 41.2524 36.3054L34.8068 31.2014Z" fill="#0B353B"/>
<path fill-rule="evenodd" clip-rule="evenodd" d="M34.8061 22.9744L19.4984 25.0131C18.4525 25.1523 17.4116 24.8448 16.6263 24.1642L13.4592 21.4202L8.22573 22.1172C7.81587 22.1717 7.65005 22.6937 7.95782 22.9602L17.5668 31.2858C18.0577 31.7112 18.7081 31.9034 19.3619 31.8164L40.9999 28.9346C41.4194 28.8788 41.5791 28.3374 41.2525 28.0789L34.8061 22.9744Z" fill="#1AA47B"/>
<path fill-rule="evenodd" clip-rule="evenodd" d="M8.22272 13.8864L29.0834 11.1082C29.7033 11.0256 30.322 11.1938 30.8049 11.5761L41.2524 19.8489C41.582 20.1098 41.4209 20.6559 40.9976 20.7124L19.3596 23.594C18.7047 23.6813 18.0531 23.4887 17.5613 23.0627L7.9524 14.7371C7.64188 14.468 7.8092 13.9415 8.22272 13.8864Z" fill="#0B353B"/>
</svg>
