
<svg width="16" height="16" viewBox="0 0 16 16" fill="none" xmlns="http://www.w3.org/2000/svg">
<rect width="16" height="16" fill="white"/>
<path fill-rule="evenodd" clip-rule="evenodd" d="M2 9.76497V13.2018C2 13.8828 2.55207 14.4349 3.23309 14.4349H5.03823C5.71924 14.4349 6.27131 13.8828 6.27131 13.2018V9.59778C6.27131 9.42054 6.415 9.27685 6.59225 9.27685L8.86158 9.27685C11.1472 9.27685 13 7.42401 13 5.13842C13 2.85284 11.1472 1 8.86158 1L2.85873 1C2.38446 1 2 1.38447 2 1.85873V8.6067C4.62552 7.54483 6.37395 6.20461 7.04984 5.54785C7.1266 5.47327 7.12434 5.35172 7.04909 5.27563L6.49547 4.71578C6.38564 4.60471 6.44058 4.4162 6.59288 4.38152L9.0968 3.81145C9.24743 3.77716 9.37807 3.91997 9.33053 4.06695L8.57585 6.40015C8.52802 6.54805 8.33675 6.5866 8.23537 6.46877L7.76596 5.92327C7.68184 5.82551 7.52832 5.83107 7.44583 5.93021C6.78337 6.72637 5.005 8.33826 2 9.76497Z" fill="#3BFE7B"/>
</svg>
