<svg width="306" height="70" viewBox="0 0 306 70" fill="none" xmlns="http://www.w3.org/2000/svg">
<g filter="url(#filter0_d_110_26)">
<rect x="1.01953" y="0.814453" width="67.3712" height="67.3712" rx="12.282" fill="#001C06"/>
</g>
<g opacity="0.4" filter="url(#filter1_d_110_26)">
<rect x="4.14022" y="3.93563" width="61.1292" height="61.1292" rx="9.44083" stroke="#3BFE7B" stroke-width="0.231274" stroke-dasharray="0.99 0.99" shape-rendering="crispEdges"/>
</g>
<path fill-rule="evenodd" clip-rule="evenodd" d="M20.418 40.9507V51.7783C20.418 53.9238 22.1572 55.663 24.3027 55.663H29.9897C32.1352 55.663 33.8744 53.9238 33.8744 51.7783V40.4241C33.8744 39.8657 34.3271 39.413 34.8855 39.413L42.0349 39.413C49.2355 39.413 55.0727 33.5758 55.0727 26.3752C55.0727 19.1746 49.2355 13.3374 42.0349 13.3374L23.1233 13.3374C21.6292 13.3374 20.418 14.5486 20.418 16.0428V37.3016C28.6896 33.9563 34.198 29.734 36.3273 27.6649C36.5691 27.4299 36.562 27.047 36.3249 26.8072L34.5808 25.0435C34.2348 24.6936 34.4079 24.0997 34.8877 23.9904L42.7761 22.1944C43.2507 22.0864 43.6622 22.5363 43.5124 22.9994L41.1349 30.35C40.9842 30.8159 40.3816 30.9374 40.0622 30.5662L38.5834 28.8476C38.3184 28.5396 37.8347 28.5571 37.5748 28.8695C35.4878 31.3777 29.8851 36.4559 20.418 40.9507Z" fill="#3BFE7B"/>
<path d="M94.0512 17.6324C96.3364 17.6324 98.3236 18.0795 100.112 18.9738C101.851 19.868 103.192 21.11 104.136 22.6997C105.08 24.2894 105.577 26.1772 105.577 28.3134C105.577 30.4993 105.08 32.3871 104.136 33.9769C103.142 35.6163 101.801 36.8583 100.062 37.7525C98.3236 38.6467 96.3364 39.0441 94.0512 39.0441H85.0096V52.4078H80.6875V17.6324H94.0512ZM85.0096 35.0698H93.6538C95.939 35.0698 97.7275 34.4737 99.1185 33.2317C100.46 32.0394 101.155 30.4 101.155 28.3134C101.155 26.2766 100.46 24.6372 99.1185 23.4449C97.7771 22.2526 95.9887 21.6068 93.7034 21.6068H85.0096V35.0698Z" fill="#3BFE7B"/>
<path d="M123.449 27.0715V31.0458H121.412C118.978 31.0458 117.239 31.8903 116.196 33.4801C115.152 35.1195 114.656 37.1067 114.656 39.4913V52.4078H110.582V27.0715H114.109L114.656 30.8968C115.351 29.7541 116.295 28.8102 117.487 28.1147C118.63 27.4192 120.22 27.0715 122.306 27.0715H123.449Z" fill="#3BFE7B"/>
<path d="M131.829 51.0665C129.941 49.9736 128.451 48.4832 127.408 46.496C126.315 44.5585 125.818 42.323 125.818 39.7397C125.818 37.206 126.315 34.9705 127.408 32.9833C128.451 31.0458 129.941 29.5057 131.829 28.4128C133.717 27.3199 135.903 26.7734 138.387 26.7734C140.821 26.7734 143.007 27.3199 144.895 28.4128C146.783 29.5057 148.273 31.0458 149.366 32.9833C150.409 34.9705 150.956 37.206 150.956 39.7397C150.956 42.323 150.409 44.5585 149.366 46.496C148.273 48.4832 146.783 49.9736 144.895 51.0665C143.007 52.1594 140.821 52.7059 138.387 52.7059C135.903 52.7059 133.717 52.1594 131.829 51.0665ZM142.759 47.887C144.05 47.0922 145.044 45.9992 145.739 44.5585C146.435 43.1675 146.783 41.5281 146.783 39.7397C146.783 37.9512 146.435 36.3615 145.739 34.9208C145.044 33.5298 144.05 32.3871 142.759 31.5923C141.467 30.7974 140.026 30.4 138.387 30.4C136.698 30.4 135.257 30.7974 133.965 31.5923C132.674 32.3871 131.73 33.5298 131.034 34.9208C130.339 36.3615 129.991 37.9512 129.991 39.7397C129.991 41.5281 130.339 43.1675 131.034 44.5585C131.73 45.9992 132.674 47.0922 133.965 47.887C135.257 48.6819 136.698 49.0793 138.387 49.0793C140.026 49.0793 141.467 48.6819 142.759 47.887Z" fill="#3BFE7B"/>
<path d="M159.703 44.0617C159.753 45.6018 160.399 46.8438 161.69 47.7877C162.982 48.7813 164.621 49.2284 166.658 49.2284C168.447 49.2284 169.887 48.8806 170.98 48.1851C172.073 47.4896 172.669 46.5457 172.669 45.3534C172.669 44.3598 172.371 43.6146 171.874 43.0682C171.328 42.5714 170.632 42.1739 169.788 41.9752C168.943 41.7765 167.751 41.5778 166.211 41.3791C164.025 41.1307 162.237 40.7829 160.846 40.3358C159.455 39.9384 158.312 39.2429 157.467 38.299C156.573 37.3551 156.176 36.0634 156.176 34.3743C156.176 32.8839 156.573 31.5923 157.418 30.4C158.262 29.2573 159.405 28.3631 160.895 27.7173C162.336 27.0715 163.975 26.7237 165.814 26.7237C168.794 26.7237 171.179 27.4192 173.067 28.8102C174.955 30.2013 175.998 32.1884 176.196 34.7717H172.123C171.924 33.4801 171.278 32.3871 170.185 31.4929C169.043 30.6484 167.652 30.2013 165.963 30.2013C164.224 30.2013 162.833 30.5987 161.79 31.2942C160.697 31.9897 160.2 32.9336 160.2 34.0762C160.2 34.9705 160.448 35.6163 160.945 36.0634C161.442 36.5602 162.038 36.8583 162.833 37.0073C163.628 37.206 164.82 37.3551 166.41 37.5538C168.596 37.8518 170.434 38.1996 171.874 38.6467C173.315 39.1435 174.458 39.8887 175.352 40.8823C176.246 41.9255 176.693 43.3166 176.693 45.0553C176.693 46.5954 176.246 47.9367 175.352 49.0793C174.458 50.2716 173.216 51.1659 171.725 51.762C170.185 52.4078 168.496 52.7059 166.658 52.7059C163.33 52.7059 160.647 51.9607 158.66 50.4207C156.673 48.9303 155.629 46.7941 155.629 44.0617H159.703Z" fill="#3BFE7B"/>
<path d="M196.268 17.6324C198.553 17.6324 200.54 18.0795 202.329 18.9738C204.068 19.868 205.409 21.11 206.353 22.6997C207.297 24.2894 207.794 26.1772 207.794 28.3134C207.794 30.4993 207.297 32.3871 206.353 33.9769C205.359 35.6163 204.018 36.8583 202.279 37.7525C200.54 38.6467 198.553 39.0441 196.268 39.0441H187.226V52.4078H182.904V17.6324H196.268ZM187.226 35.0698H195.871C198.156 35.0698 199.944 34.4737 201.335 33.2317C202.677 32.0394 203.372 30.4 203.372 28.3134C203.372 26.2766 202.677 24.6372 201.335 23.4449C199.994 22.2526 198.206 21.6068 195.92 21.6068H187.226V35.0698Z" fill="#3BFE7B"/>
<path d="M234.992 48.6819V52.4078H232.756C231.117 52.4078 229.974 52.1098 229.279 51.4143C228.583 50.7684 228.186 49.7748 228.186 48.4832C226.199 51.3149 223.367 52.7059 219.691 52.7059C216.859 52.7059 214.574 52.0601 212.885 50.7188C211.195 49.4271 210.351 47.589 210.351 45.3037C210.351 42.7701 211.195 40.8326 212.934 39.4416C214.673 38.1002 217.207 37.4047 220.535 37.4047H227.987V35.666C227.987 34.0266 227.391 32.7349 226.298 31.791C225.205 30.8968 223.665 30.4 221.678 30.4C219.889 30.4 218.449 30.7974 217.306 31.5923C216.163 32.3871 215.468 33.3807 215.219 34.6724H211.146C211.444 32.1884 212.537 30.2509 214.425 28.8599C216.312 27.4689 218.796 26.7734 221.876 26.7734C225.106 26.7734 227.59 27.5683 229.378 29.158C231.167 30.7477 232.061 32.9833 232.061 35.9144V46.8438C232.061 48.0858 232.607 48.6819 233.75 48.6819H234.992ZM227.987 40.8326H220.138C216.362 40.8326 214.474 42.2733 214.474 45.0553C214.474 46.347 214.971 47.3406 215.965 48.0858C216.958 48.8806 218.3 49.2284 219.989 49.2284C222.473 49.2284 224.41 48.5825 225.851 47.2909C227.242 45.9992 227.987 44.2605 227.987 42.0746V40.8326Z" fill="#3BFE7B"/>
<path d="M251.984 27.0715V31.0458H249.947C247.513 31.0458 245.774 31.8903 244.731 33.4801C243.688 35.1195 243.191 37.1067 243.191 39.4913V52.4078H239.117V27.0715H242.644L243.191 30.8968C243.886 29.7541 244.83 28.8102 246.022 28.1147C247.165 27.4192 248.755 27.0715 250.841 27.0715H251.984Z" fill="#3BFE7B"/>
<path d="M260.627 18.0299C261.124 18.5266 261.373 19.1725 261.373 19.9177C261.373 20.7125 261.124 21.3087 260.627 21.8055C260.131 22.3023 259.485 22.5507 258.74 22.5507C257.945 22.5507 257.349 22.3023 256.852 21.8055C256.355 21.3087 256.107 20.7125 256.107 19.9177C256.107 19.1725 256.355 18.5266 256.852 18.0299C257.349 17.5331 257.945 17.2847 258.74 17.2847C259.485 17.2847 260.131 17.5331 260.627 18.0299ZM256.703 27.0715H260.776V52.4078H256.703V27.0715Z" fill="#3BFE7B"/>
<path d="M269.04 30.7974H264.469V27.0715H269.04V19.9673H273.114V27.0715H279.522V30.7974H273.114V45.7508C273.114 46.8438 273.312 47.589 273.71 48.0361C274.107 48.4832 274.852 48.6819 275.896 48.6819H280.317V52.4078H275.647C273.263 52.4078 271.524 51.9111 270.53 50.8181C269.537 49.7748 269.04 48.0858 269.04 45.8005V30.7974Z" fill="#3BFE7B"/>
<path d="M285.997 27.0715L293.797 47.738L301.348 27.0715H305.67L293.995 56.6803C293.399 58.2203 292.853 59.3629 292.406 60.1081C291.909 60.903 291.363 61.4495 290.667 61.7972C289.971 62.1946 289.028 62.3437 287.885 62.3437H283.016V58.6177H286.643C287.438 58.6177 288.034 58.5681 288.431 58.3693C288.829 58.2203 289.127 57.9719 289.375 57.5745C289.624 57.177 289.922 56.5312 290.319 55.637L291.611 52.6066L281.675 27.0715H285.997Z" fill="#3BFE7B"/>
<rect width="5.67147" height="5.67147" transform="matrix(-0.707107 0.707107 0.707107 0.707107 258.651 16.0151)" fill="#3BFE7B"/>
<defs>
<filter id="filter0_d_110_26" x="0.197171" y="0.403273" width="69.0158" height="69.0158" filterUnits="userSpaceOnUse" color-interpolation-filters="sRGB">
<feFlood flood-opacity="0" result="BackgroundImageFix"/>
<feColorMatrix in="SourceAlpha" type="matrix" values="0 0 0 0 0 0 0 0 0 0 0 0 0 0 0 0 0 0 127 0" result="hardAlpha"/>
<feOffset dy="0.41118"/>
<feGaussianBlur stdDeviation="0.41118"/>
<feComposite in2="hardAlpha" operator="out"/>
<feColorMatrix type="matrix" values="0 0 0 0 0 0 0 0 0 0 0 0 0 0 0 0 0 0 0.25 0"/>
<feBlend mode="normal" in2="BackgroundImageFix" result="effect1_dropShadow_110_26"/>
<feBlend mode="normal" in="SourceGraphic" in2="effect1_dropShadow_110_26" result="shape"/>
</filter>
<filter id="filter1_d_110_26" x="3.20205" y="3.40864" width="63.0051" height="63.0056" filterUnits="userSpaceOnUse" color-interpolation-filters="sRGB">
<feFlood flood-opacity="0" result="BackgroundImageFix"/>
<feColorMatrix in="SourceAlpha" type="matrix" values="0 0 0 0 0 0 0 0 0 0 0 0 0 0 0 0 0 0 127 0" result="hardAlpha"/>
<feOffset dy="0.41118"/>
<feGaussianBlur stdDeviation="0.41118"/>
<feComposite in2="hardAlpha" operator="out"/>
<feColorMatrix type="matrix" values="0 0 0 0 0 0 0 0 0 0 0 0 0 0 0 0 0 0 0.25 0"/>
<feBlend mode="normal" in2="BackgroundImageFix" result="effect1_dropShadow_110_26"/>
<feBlend mode="normal" in="SourceGraphic" in2="effect1_dropShadow_110_26" result="shape"/>
</filter>
</defs>
</svg>
