<svg xmlns="http://www.w3.org/2000/svg" width="368" height="446" viewBox="0 0 368 446" fill="none">
  <g style="mix-blend-mode:luminosity" opacity="0.6" filter="url(#filter0_ddiii_565_296)">
    <mask id="path-1-inside-1_565_296" fill="white">
      <path fill-rule="evenodd" clip-rule="evenodd" d="M7.72461 289.87V400.669C7.72461 422.625 25.5234 440.424 47.4794 440.424H105.677C127.633 440.424 145.432 422.625 145.432 400.669V284.476C145.432 278.761 150.064 274.129 155.779 274.129L228.942 274.129C302.63 274.129 362.365 214.393 362.365 140.706C362.365 67.0185 302.63 7.28293 228.942 7.28296L35.41 7.28303C20.1198 7.28303 7.72461 19.6782 7.72461 34.9684V252.527C92.3721 218.293 148.742 175.084 170.533 153.909C173.007 151.505 172.934 147.586 170.508 145.133L152.66 127.083C149.119 123.502 150.89 117.425 155.8 116.307L236.527 97.9278C241.383 96.8221 245.595 101.426 244.062 106.165L219.731 181.388C218.189 186.156 212.023 187.399 208.754 183.6L193.62 166.013C190.908 162.861 185.959 163.041 183.299 166.237C161.942 191.905 104.607 243.873 7.72461 289.87Z"/>
    </mask>
    <path fill-rule="evenodd" clip-rule="evenodd" d="M7.72461 289.87V400.669C7.72461 422.625 25.5234 440.424 47.4794 440.424H105.677C127.633 440.424 145.432 422.625 145.432 400.669V284.476C145.432 278.761 150.064 274.129 155.779 274.129L228.942 274.129C302.63 274.129 362.365 214.393 362.365 140.706C362.365 67.0185 302.63 7.28293 228.942 7.28296L35.41 7.28303C20.1198 7.28303 7.72461 19.6782 7.72461 34.9684V252.527C92.3721 218.293 148.742 175.084 170.533 153.909C173.007 151.505 172.934 147.586 170.508 145.133L152.66 127.083C149.119 123.502 150.89 117.425 155.8 116.307L236.527 97.9278C241.383 96.8221 245.595 101.426 244.062 106.165L219.731 181.388C218.189 186.156 212.023 187.399 208.754 183.6L193.62 166.013C190.908 162.861 185.959 163.041 183.299 166.237C161.942 191.905 104.607 243.873 7.72461 289.87Z" fill="url(#paint0_linear_565_296)"/>
    <path d="M7.72461 289.87L5.58015 285.353L2.72461 286.709V289.87H7.72461ZM155.779 274.129V279.129V274.129ZM228.942 274.129V269.129V274.129ZM228.942 7.28296V2.28296V7.28296ZM35.41 7.28303L35.41 12.283L35.41 7.28303ZM7.72461 252.527H2.72461V259.943L9.59928 257.162L7.72461 252.527ZM170.533 153.909L167.048 150.324L170.533 153.909ZM170.508 145.133L166.953 148.649H166.953L170.508 145.133ZM152.66 127.083L149.104 130.599V130.599L152.66 127.083ZM155.8 116.307L156.91 121.182L155.8 116.307ZM236.527 97.9278L237.637 102.803L236.527 97.9278ZM244.062 106.165L248.819 107.704V107.704L244.062 106.165ZM219.731 181.388L224.489 182.927L224.489 182.926L219.731 181.388ZM208.754 183.6L204.964 186.861L204.964 186.861L208.754 183.6ZM193.62 166.013L197.41 162.752L197.41 162.752L193.62 166.013ZM183.299 166.237L187.143 169.435H187.143L183.299 166.237ZM12.7246 400.669V289.87H2.72461V400.669H12.7246ZM47.4794 435.424C28.2849 435.424 12.7246 419.864 12.7246 400.669H2.72461C2.72461 425.387 22.762 445.424 47.4794 445.424V435.424ZM105.677 435.424H47.4794V445.424H105.677V435.424ZM140.432 400.669C140.432 419.864 124.872 435.424 105.677 435.424V445.424C130.395 445.424 150.432 425.387 150.432 400.669H140.432ZM140.432 284.476V400.669H150.432V284.476H140.432ZM155.779 269.129C147.303 269.129 140.432 276 140.432 284.476H150.432C150.432 281.523 152.826 279.129 155.779 279.129V269.129ZM228.942 269.129L155.779 269.129V279.129L228.942 279.129V269.129ZM357.365 140.706C357.365 211.632 299.868 269.129 228.942 269.129V279.129C305.391 279.129 367.365 217.155 367.365 140.706H357.365ZM228.942 12.283C299.868 12.2829 357.365 69.7799 357.365 140.706H367.365C367.365 64.257 305.391 2.28293 228.942 2.28296V12.283ZM35.41 12.283L228.942 12.283V2.28296L35.41 2.28303L35.41 12.283ZM12.7246 34.9684C12.7246 22.4396 22.8812 12.283 35.41 12.283L35.41 2.28303C17.3583 2.28303 2.72461 16.9168 2.72461 34.9684H12.7246ZM12.7246 252.527V34.9684H2.72461V252.527H12.7246ZM167.048 150.324C145.737 171.031 89.9194 213.891 5.84994 247.892L9.59928 257.162C94.8248 222.694 151.746 179.136 174.017 157.495L167.048 150.324ZM166.953 148.649C167.544 149.246 167.411 149.971 167.048 150.324L174.017 157.495C178.603 153.039 178.325 145.927 174.064 141.617L166.953 148.649ZM149.104 130.599L166.953 148.649L174.064 141.617L156.215 123.568L149.104 130.599ZM154.69 111.432C145.956 113.42 142.806 124.23 149.104 130.599L156.215 123.568C155.431 122.775 155.823 121.43 156.91 121.182L154.69 111.432ZM235.417 93.0525L154.69 111.432L156.91 121.182L237.637 102.803L235.417 93.0525ZM248.819 107.704C251.546 99.2751 244.054 91.086 235.417 93.0525L237.637 102.803C238.712 102.558 239.644 103.577 239.305 104.627L248.819 107.704ZM224.489 182.926L248.819 107.704L239.305 104.626L214.974 179.849L224.489 182.926ZM204.964 186.861C210.778 193.618 221.745 191.407 224.489 182.927L214.974 179.849C214.633 180.904 213.268 181.18 212.544 180.339L204.964 186.861ZM189.83 169.274L204.964 186.861L212.544 180.339L197.41 162.752L189.83 169.274ZM187.143 169.435C187.945 168.47 189.256 168.607 189.83 169.274L197.41 162.752C192.561 157.115 183.972 157.611 179.456 163.039L187.143 169.435ZM9.86907 294.387C107.317 248.121 165.262 195.732 187.143 169.435L179.456 163.039C158.621 188.078 101.896 239.625 5.58015 285.353L9.86907 294.387Z" fill="#08272B" mask="url(#path-1-inside-1_565_296)"/>
  </g>
  <defs>
    <filter id="filter0_ddiii_565_296" x="0.724609" y="0.282959" width="366.641" height="445.141" filterUnits="userSpaceOnUse" color-interpolation-filters="sRGB">
      <feFlood flood-opacity="0" result="BackgroundImageFix"/>
      <feColorMatrix in="SourceAlpha" type="matrix" values="0 0 0 0 0 0 0 0 0 0 0 0 0 0 0 0 0 0 127 0" result="hardAlpha"/>
      <feOffset dy="1"/>
      <feGaussianBlur stdDeviation="2"/>
      <feComposite in2="hardAlpha" operator="out"/>
      <feColorMatrix type="matrix" values="0 0 0 0 0 0 0 0 0 0 0 0 0 0 0 0 0 0 0.25 0"/>
      <feBlend mode="normal" in2="BackgroundImageFix" result="effect1_dropShadow_565_296"/>
      <feColorMatrix in="SourceAlpha" type="matrix" values="0 0 0 0 0 0 0 0 0 0 0 0 0 0 0 0 0 0 127 0" result="hardAlpha"/>
      <feOffset dx="-1" dy="-1"/>
      <feGaussianBlur stdDeviation="3"/>
      <feComposite in2="hardAlpha" operator="out"/>
      <feColorMatrix type="matrix" values="0 0 0 0 0.231373 0 0 0 0 0.996078 0 0 0 0 0.482353 0 0 0 0.15 0"/>
      <feBlend mode="normal" in2="effect1_dropShadow_565_296" result="effect2_dropShadow_565_296"/>
      <feBlend mode="normal" in="SourceGraphic" in2="effect2_dropShadow_565_296" result="shape"/>
      <feColorMatrix in="SourceAlpha" type="matrix" values="0 0 0 0 0 0 0 0 0 0 0 0 0 0 0 0 0 0 127 0" result="hardAlpha"/>
      <feOffset dy="-5"/>
      <feGaussianBlur stdDeviation="2"/>
      <feComposite in2="hardAlpha" operator="arithmetic" k2="-1" k3="1"/>
      <feColorMatrix type="matrix" values="0 0 0 0 1 0 0 0 0 1 0 0 0 0 1 0 0 0 0.25 0"/>
      <feBlend mode="normal" in2="shape" result="effect3_innerShadow_565_296"/>
      <feColorMatrix in="SourceAlpha" type="matrix" values="0 0 0 0 0 0 0 0 0 0 0 0 0 0 0 0 0 0 127 0" result="hardAlpha"/>
      <feOffset dx="5" dy="9"/>
      <feGaussianBlur stdDeviation="2"/>
      <feComposite in2="hardAlpha" operator="arithmetic" k2="-1" k3="1"/>
      <feColorMatrix type="matrix" values="0 0 0 0 0 0 0 0 0 0.134694 0 0 0 0 0.15 0 0 0 1 0"/>
      <feBlend mode="normal" in2="effect3_innerShadow_565_296" result="effect4_innerShadow_565_296"/>
      <feColorMatrix in="SourceAlpha" type="matrix" values="0 0 0 0 0 0 0 0 0 0 0 0 0 0 0 0 0 0 127 0" result="hardAlpha"/>
      <feOffset dx="-4" dy="13"/>
      <feGaussianBlur stdDeviation="2"/>
      <feComposite in2="hardAlpha" operator="arithmetic" k2="-1" k3="1"/>
      <feColorMatrix type="matrix" values="0 0 0 0 0 0 0 0 0 0.134694 0 0 0 0 0.15 0 0 0 1 0"/>
      <feBlend mode="normal" in2="effect4_innerShadow_565_296" result="effect5_innerShadow_565_296"/>
    </filter>
    <linearGradient id="paint0_linear_565_296" x1="185.045" y1="7.28296" x2="192.376" y2="484.722" gradientUnits="userSpaceOnUse">
      <stop stop-color="#082427"/>
      <stop offset="1" stop-color="#00353C"/>
    </linearGradient>
  </defs>
</svg>