<svg xmlns="http://www.w3.org/2000/svg" width="80" height="79" viewBox="0 0 80 79" fill="none">
  <g filter="url(#filter0_bii_425_536)">
    <rect x="0.196777" width="78.9294" height="78.9294" rx="17" fill="url(#paint0_linear_425_536)" fill-opacity="0.1"/>
    <rect x="0.696777" y="0.5" width="77.9294" height="77.9294" rx="16.5" stroke="url(#paint1_linear_425_536)"/>
    <path d="M40.2193 36.081H20.5335C20.306 36.081 20.0955 35.948 19.9975 35.7399C19.4011 34.4793 18.8651 33.1763 19.4386 32.3294C19.9878 31.5104 21.3283 31.1753 24.0709 31.1753C25.8154 31.1753 28.0209 31.3144 30.351 31.462C33.2473 31.6447 36.527 31.8528 39.7536 31.8528C39.9677 31.8528 40.1649 31.9665 40.2701 32.1516C40.321 32.2411 40.7722 33.0856 40.8279 35.0987C40.8339 35.2717 40.8254 35.4193 40.8109 35.5523C40.777 35.8524 40.523 36.081 40.2193 36.081Z" fill="#1AA47B"/>
    <path d="M14.3204 44.4623L13.9647 44.3389C13.7676 44.2676 13.6212 44.1018 13.5788 43.8949L13.205 42.0778C13.1614 41.871 13.2328 41.6556 13.3913 41.5141L15.3669 39.7514C15.4734 39.657 15.6101 39.6026 15.7504 39.6002L18.1531 39.5518C18.6322 39.1416 20.0355 37.9367 20.6682 37.408C20.7747 37.3185 20.9102 37.2701 21.0493 37.2701H39.2363C39.4298 37.2701 39.6101 37.3632 39.7214 37.5217C39.8327 37.679 39.8605 37.881 39.7964 38.0637C39.6452 38.4896 39.3367 38.8525 38.9108 39.357C38.4559 39.8941 37.8317 40.6297 37.1046 41.7923C36.5856 42.6247 36.4888 43.4764 36.8167 44.3293C37.3333 45.6649 38.7608 46.7053 39.5968 46.9424C40.2634 47.1336 41.403 47.2461 42.6455 47.2461C44.6126 47.2461 46.6584 46.969 48.4041 46.4646C51.644 45.527 52.261 38.2464 51.9162 36.987C51.725 36.2841 50.8733 33.9516 50.0495 31.6965C49.8172 31.059 49.6164 30.5109 49.4397 30.0246C49.2945 30.1262 49.1893 30.1952 49.182 30.2C49.0828 30.2629 48.9739 30.2932 48.8639 30.2932C48.6667 30.2932 48.4743 30.1952 48.3618 30.0173C48.1852 29.7391 48.2674 29.3725 48.5445 29.1959C48.5469 29.1947 48.761 29.0567 49.0187 28.8583C48.8941 28.5087 48.7888 28.2123 48.7017 27.9631C48.6909 27.9643 48.68 27.9667 48.6703 27.9691C48.6086 28.1579 48.4634 28.3151 48.2565 28.366C47.3952 28.5765 46.5906 28.8656 46.5822 28.8692C46.5156 28.8934 46.4479 28.9055 46.3801 28.9055C46.1358 28.9055 45.9083 28.7543 45.82 28.5123C45.7087 28.2038 45.8684 27.8615 46.1769 27.7514C46.212 27.7393 47.0467 27.438 47.9734 27.2118C48.1646 27.1634 48.3509 27.2239 48.4912 27.3425C48.34 26.8827 48.2965 26.6868 48.2965 26.5754C48.2965 25.4661 52.4376 23.9393 53.7273 23.8945C54.1071 23.8945 54.4398 24.053 54.6903 24.3518C55.6182 25.4588 55.1222 28.5765 55.0133 29.191C54.9685 29.4487 54.7604 29.6447 54.5003 29.6774L52.9409 29.8697C53.4647 31.5356 55.79 36.7051 56.2848 37.4757C56.4021 37.6451 57.1849 37.7842 57.5611 37.8508C58.3656 37.9935 59.1266 38.1278 59.4157 38.7061C59.7109 39.2977 59.6879 40.3043 59.648 40.8571C59.7375 40.8547 59.8246 40.839 59.9142 40.839C62.6689 40.839 65.2349 42.3234 66.6104 44.7031C66.9129 45.2269 66.9637 45.7314 66.7629 46.2057C66.5523 46.6981 66.0454 47.1203 65.3667 47.4989C66.2705 48.6325 66.8149 50.0613 66.8149 51.6195C66.8149 55.2683 63.8472 58.2383 60.1985 58.2383C56.5497 58.2383 53.5821 55.2683 53.5821 51.6195C53.5821 51.4429 53.5954 51.2663 53.6087 51.0896C53.0159 51.3074 52.244 51.6691 52.0275 51.7828C51.8109 51.8978 51.6319 51.7707 51.5944 51.5929C51.5557 51.4139 51.4819 50.9324 51.4637 50.5888C49.7059 52.0175 47.8198 52.1192 45.0433 52.1192H29.7018C29.1514 55.5792 26.1559 58.2359 22.5434 58.2359C18.5414 58.2359 15.2846 54.9816 15.2846 50.9771C15.2846 50.763 15.2992 50.5525 15.3161 50.3456C13.2086 50.048 12.865 49.6984 12.7005 49.5278C12.4743 49.2979 12.4356 49.0499 12.4416 48.8878C12.4888 47.5715 13.6611 45.5185 14.3204 44.4623ZM56.557 51.6183C56.557 53.6254 58.1902 55.2598 60.1985 55.2598C62.2067 55.2598 63.84 53.6254 63.84 51.6183C63.84 50.4085 63.2411 49.3439 62.3314 48.6797C61.2377 49.0051 60.0376 49.3076 58.8048 49.6125C58.1696 49.7697 57.5284 49.9319 56.9006 50.0928C56.6852 50.5622 56.557 51.0727 56.557 51.6183ZM18.262 50.9747C18.262 53.3374 20.1843 55.2586 22.5459 55.2586C24.9074 55.2586 26.8286 53.3374 26.8286 50.9747C23.694 50.9517 20.3029 50.7581 18.297 50.6287C18.2874 50.7448 18.262 50.8586 18.262 50.9747Z" fill="#3AF779"/>
  </g>
  <defs>
    <filter id="filter0_bii_425_536" x="-38.4445" y="-38.6412" width="156.212" height="156.212" filterUnits="userSpaceOnUse" color-interpolation-filters="sRGB">
      <feFlood flood-opacity="0" result="BackgroundImageFix"/>
      <feGaussianBlur in="BackgroundImageFix" stdDeviation="19.3206"/>
      <feComposite in2="SourceAlpha" operator="in" result="effect1_backgroundBlur_425_536"/>
      <feBlend mode="normal" in="SourceGraphic" in2="effect1_backgroundBlur_425_536" result="shape"/>
      <feColorMatrix in="SourceAlpha" type="matrix" values="0 0 0 0 0 0 0 0 0 0 0 0 0 0 0 0 0 0 127 0" result="hardAlpha"/>
      <feOffset dy="-10.2286"/>
      <feGaussianBlur stdDeviation="3.58"/>
      <feComposite in2="hardAlpha" operator="arithmetic" k2="-1" k3="1"/>
      <feColorMatrix type="matrix" values="0 0 0 0 1 0 0 0 0 1 0 0 0 0 1 0 0 0 0.35 0"/>
      <feBlend mode="normal" in2="shape" result="effect2_innerShadow_425_536"/>
      <feColorMatrix in="SourceAlpha" type="matrix" values="0 0 0 0 0 0 0 0 0 0 0 0 0 0 0 0 0 0 127 0" result="hardAlpha"/>
      <feMorphology radius="4.54603" operator="dilate" in="SourceAlpha" result="effect3_innerShadow_425_536"/>
      <feOffset dy="7.95555"/>
      <feGaussianBlur stdDeviation="5.28476"/>
      <feComposite in2="hardAlpha" operator="arithmetic" k2="-1" k3="1"/>
      <feColorMatrix type="matrix" values="0 0 0 0 1 0 0 0 0 1 0 0 0 0 1 0 0 0 0.1 0"/>
      <feBlend mode="normal" in2="effect2_innerShadow_425_536" result="effect3_innerShadow_425_536"/>
    </filter>
    <linearGradient id="paint0_linear_425_536" x1="42.2267" y1="2.14201" x2="42.2267" y2="78.9294" gradientUnits="userSpaceOnUse">
      <stop stop-color="#FDFDFD"/>
      <stop offset="0.476543" stop-color="white" stop-opacity="0.71"/>
      <stop offset="1" stop-color="white"/>
    </linearGradient>
    <linearGradient id="paint1_linear_425_536" x1="39.6615" y1="0" x2="39.6615" y2="78.9294" gradientUnits="userSpaceOnUse">
      <stop stop-color="#A0FABE"/>
      <stop offset="1" stop-color="white"/>
    </linearGradient>
  </defs>
</svg>