
<svg width="80" height="79" viewBox="0 0 80 79" fill="none" xmlns="http://www.w3.org/2000/svg">
<g filter="url(#filter0_bii_425_547)">
<rect x="0.5354" width="78.9294" height="78.9294" rx="17" fill="url(#paint0_linear_425_547)" fill-opacity="0.1"/>
<rect x="1.0354" y="0.5" width="77.9294" height="77.9294" rx="16.5" stroke="url(#paint1_linear_425_547)"/>
<path d="M24.1302 45.9241C20.676 45.9241 17.9392 48.7369 17.9392 52.1082V52.1151H30.3144C30.3144 52.1151 30.3144 52.1151 30.3144 52.1082C30.3144 48.7024 27.5426 45.9241 24.1302 45.9241Z" fill="#1AA47B"/>
<path d="M54.7542 52.0808H62.062C62.062 49.0681 59.8282 46.5655 56.919 46.1519C56.3949 48.0961 55.6641 50.0884 54.7542 52.0808Z" fill="#1AA47B"/>
<path d="M24.1229 56.3138C25.9431 56.3138 27.4875 55.135 28.0251 53.4941H20.2349C20.7725 55.135 22.3098 56.3138 24.1229 56.3138Z" fill="#3AF779"/>
<path d="M55.6162 56.3137C57.4502 56.3137 59.0014 55.1141 59.5252 53.4595H51.7073C52.2381 55.1141 53.7893 56.3137 55.6162 56.3137Z" fill="#3AF779"/>
<path d="M57.1466 41.9187C56.8501 41.9187 56.5744 41.9945 56.3259 42.1186V42.1117C56.5744 40.2502 56.6296 38.4096 56.4916 36.5964C56.4916 36.5757 56.5054 36.562 56.5054 36.5413C56.5054 36.493 56.4848 36.4446 56.4778 36.3964C56.2088 33.2458 55.347 30.1711 53.8995 27.1927C55.6298 26.9721 56.9743 25.5037 56.9743 23.718V23.3044C56.9743 22.9184 56.6639 22.615 56.2849 22.615H26.7571C22.2207 22.615 18.5322 26.3034 18.5322 30.8398V47.0273C19.9181 45.5037 21.9174 44.5453 24.1304 44.5453C28.2945 44.5453 31.6793 47.9235 31.6934 52.0807H52.8031C53.0721 52.0807 53.3134 51.929 53.4235 51.6808C54.3819 49.6126 55.1265 47.5581 55.6436 45.5794C55.685 45.4071 55.7331 45.2416 55.7678 45.0693C56.1125 45.4416 56.602 45.6829 57.1466 45.6829H59.1735V41.9187H57.1466ZM37.9463 47.8545H33.6789V42.1668C33.6789 39.747 31.714 37.7822 29.301 37.7822H28.4187V29.1231C28.4187 28.089 29.2663 27.241 30.3075 27.241H37.9463V47.8545ZM47.4948 47.8545H44.2406V41.9187C45.0814 41.9187 45.7713 41.2529 45.7713 40.3882C45.7713 39.5402 45.0886 38.8576 44.2406 38.8576H39.3251V27.241H47.4948V47.8545ZM52.4241 40.5261H50.611C50.2316 40.5261 49.9216 40.2227 49.9216 39.8367C49.9216 39.4575 50.2316 39.1473 50.611 39.1473H52.4241C52.8031 39.1473 53.1135 39.4575 53.1135 39.8367C53.1135 40.2227 52.8031 40.5261 52.4241 40.5261ZM48.8736 35.8518V27.241H52.3759C53.8372 30.0538 54.7337 32.9149 55.0646 35.8518H48.8736Z" fill="#3AF779"/>
</g>
<defs>
<filter id="filter0_bii_425_547" x="-38.1058" y="-38.6412" width="156.212" height="156.212" filterUnits="userSpaceOnUse" color-interpolation-filters="sRGB">
<feFlood flood-opacity="0" result="BackgroundImageFix"/>
<feGaussianBlur in="BackgroundImageFix" stdDeviation="19.3206"/>
<feComposite in2="SourceAlpha" operator="in" result="effect1_backgroundBlur_425_547"/>
<feBlend mode="normal" in="SourceGraphic" in2="effect1_backgroundBlur_425_547" result="shape"/>
<feColorMatrix in="SourceAlpha" type="matrix" values="0 0 0 0 0 0 0 0 0 0 0 0 0 0 0 0 0 0 127 0" result="hardAlpha"/>
<feOffset dy="-10.2286"/>
<feGaussianBlur stdDeviation="3.58"/>
<feComposite in2="hardAlpha" operator="arithmetic" k2="-1" k3="1"/>
<feColorMatrix type="matrix" values="0 0 0 0 1 0 0 0 0 1 0 0 0 0 1 0 0 0 0.35 0"/>
<feBlend mode="normal" in2="shape" result="effect2_innerShadow_425_547"/>
<feColorMatrix in="SourceAlpha" type="matrix" values="0 0 0 0 0 0 0 0 0 0 0 0 0 0 0 0 0 0 127 0" result="hardAlpha"/>
<feMorphology radius="4.54603" operator="dilate" in="SourceAlpha" result="effect3_innerShadow_425_547"/>
<feOffset dy="7.95555"/>
<feGaussianBlur stdDeviation="5.28476"/>
<feComposite in2="hardAlpha" operator="arithmetic" k2="-1" k3="1"/>
<feColorMatrix type="matrix" values="0 0 0 0 1 0 0 0 0 1 0 0 0 0 1 0 0 0 0.1 0"/>
<feBlend mode="normal" in2="effect2_innerShadow_425_547" result="effect3_innerShadow_425_547"/>
</filter>
<linearGradient id="paint0_linear_425_547" x1="42.5653" y1="2.14201" x2="42.5653" y2="78.9294" gradientUnits="userSpaceOnUse">
<stop stop-color="#FDFDFD"/>
<stop offset="0.476543" stop-color="white" stop-opacity="0.71"/>
<stop offset="1" stop-color="white"/>
</linearGradient>
<linearGradient id="paint1_linear_425_547" x1="40.0001" y1="0" x2="40.0001" y2="78.9294" gradientUnits="userSpaceOnUse">
<stop stop-color="#A0FABE"/>
<stop offset="1" stop-color="white"/>
</linearGradient>
</defs>
</svg>
