
<svg width="80" height="79" viewBox="0 0 80 79" fill="none" xmlns="http://www.w3.org/2000/svg">
<g filter="url(#filter0_bii_425_560)">
<rect x="0.874023" width="78.9294" height="78.9294" rx="17" fill="url(#paint0_linear_425_560)" fill-opacity="0.1"/>
<rect x="1.37402" y="0.5" width="77.9294" height="77.9294" rx="16.5" stroke="url(#paint1_linear_425_560)"/>
<g clip-path="url(#clip0_425_560)">
<path d="M8.23031 35.2816C8.65229 34.5783 9.35559 34.1563 10.0589 34.0156C13.9973 33.453 19.2017 30.2178 21.5929 29.6552C26.7973 28.3893 39.8786 26.1387 44.8017 27.9673C52.8193 31.2024 54.7885 33.453 56.1951 34.0156C61.2588 34.5783 65.7599 35.5629 69.839 36.8288C70.4016 37.1101 70.8236 37.3914 71.2456 37.8134C73.2148 39.9233 73.9181 42.4552 73.6368 45.409C73.3555 47.5189 71.5269 49.0661 69.417 49.0661C69.6983 48.2222 69.839 47.3782 69.839 46.5343C69.839 41.7519 65.9006 37.8134 61.1181 37.8134C56.3357 37.8134 52.3973 41.7519 52.3973 46.5343C52.3973 47.3782 52.5379 48.3628 52.8193 49.0661H27.9226C28.2039 48.2222 28.3446 47.3782 28.3446 46.5343C28.3446 41.7519 24.4061 37.8134 19.6237 37.8134C14.8413 37.8134 10.9028 41.7519 10.9028 46.5343C10.9028 47.3782 11.0435 48.0815 11.1842 48.7848C10.1995 48.5035 9.07427 48.2222 7.80834 47.5189C7.10504 47.0969 6.68306 46.3936 6.5424 45.5497C5.83911 42.0332 6.40175 38.5167 8.23031 35.2816ZM38.472 34.5783L50.9907 35.0002L51.9753 34.7189C49.5841 33.1717 46.9116 31.9057 43.8171 30.6398C43.6764 30.6398 43.5358 30.4991 43.3951 30.4991C41.8478 30.2178 40.1599 30.2178 38.472 30.2178V34.5783ZM23.5622 34.0156L35.6588 34.4376V30.3585C31.7204 30.4991 27.5006 31.2024 22.7182 32.3277L23.5622 34.0156Z" fill="#3AF779"/>
<path d="M66.8865 46.5341C66.8865 43.299 64.214 40.6265 60.9788 40.6265C57.7436 40.6265 55.0711 43.299 55.0711 46.5341C55.0711 49.7693 57.7436 52.4418 60.9788 52.4418C64.214 52.4418 66.8865 49.7693 66.8865 46.5341Z" fill="#1AA47B"/>
<path d="M13.4356 46.5341C13.4356 49.7693 16.1081 52.4418 19.3433 52.4418C22.5785 52.4418 25.251 49.7693 25.251 46.5341C25.251 43.299 22.5785 40.6265 19.3433 40.6265C16.1081 40.6265 13.4356 43.299 13.4356 46.5341Z" fill="#1AA47B"/>
</g>
</g>
<defs>
<filter id="filter0_bii_425_560" x="-37.7672" y="-38.6412" width="156.212" height="156.212" filterUnits="userSpaceOnUse" color-interpolation-filters="sRGB">
<feFlood flood-opacity="0" result="BackgroundImageFix"/>
<feGaussianBlur in="BackgroundImageFix" stdDeviation="19.3206"/>
<feComposite in2="SourceAlpha" operator="in" result="effect1_backgroundBlur_425_560"/>
<feBlend mode="normal" in="SourceGraphic" in2="effect1_backgroundBlur_425_560" result="shape"/>
<feColorMatrix in="SourceAlpha" type="matrix" values="0 0 0 0 0 0 0 0 0 0 0 0 0 0 0 0 0 0 127 0" result="hardAlpha"/>
<feOffset dy="-10.2286"/>
<feGaussianBlur stdDeviation="3.58"/>
<feComposite in2="hardAlpha" operator="arithmetic" k2="-1" k3="1"/>
<feColorMatrix type="matrix" values="0 0 0 0 1 0 0 0 0 1 0 0 0 0 1 0 0 0 0.35 0"/>
<feBlend mode="normal" in2="shape" result="effect2_innerShadow_425_560"/>
<feColorMatrix in="SourceAlpha" type="matrix" values="0 0 0 0 0 0 0 0 0 0 0 0 0 0 0 0 0 0 127 0" result="hardAlpha"/>
<feMorphology radius="4.54603" operator="dilate" in="SourceAlpha" result="effect3_innerShadow_425_560"/>
<feOffset dy="7.95555"/>
<feGaussianBlur stdDeviation="5.28476"/>
<feComposite in2="hardAlpha" operator="arithmetic" k2="-1" k3="1"/>
<feColorMatrix type="matrix" values="0 0 0 0 1 0 0 0 0 1 0 0 0 0 1 0 0 0 0.1 0"/>
<feBlend mode="normal" in2="effect2_innerShadow_425_560" result="effect3_innerShadow_425_560"/>
</filter>
<linearGradient id="paint0_linear_425_560" x1="42.9039" y1="2.14201" x2="42.9039" y2="78.9294" gradientUnits="userSpaceOnUse">
<stop stop-color="#FDFDFD"/>
<stop offset="0.476543" stop-color="white" stop-opacity="0.71"/>
<stop offset="1" stop-color="white"/>
</linearGradient>
<linearGradient id="paint1_linear_425_560" x1="40.3387" y1="0" x2="40.3387" y2="78.9294" gradientUnits="userSpaceOnUse">
<stop stop-color="#A0FABE"/>
<stop offset="1" stop-color="white"/>
</linearGradient>
<clipPath id="clip0_425_560">
<rect width="67.7346" height="26.2645" fill="white" transform="matrix(-1 0 0 1 73.7471 26.791)"/>
</clipPath>
</defs>
</svg>
